<svg xmlns="http://www.w3.org/2000/svg" viewBox="0 0 150 150"><defs><style>.cls-1,.cls-7{fill:#fff;}.cls-2{fill:#b68a8f;}.cls-3,.cls-4,.cls-8,.cls-9{fill:none;}.cls-3{stroke:#231f20;}.cls-3,.cls-4,.cls-7,.cls-8{stroke-linecap:round;stroke-linejoin:round;}.cls-4{stroke:#b68a8f;}.cls-5{fill:#939598;}.cls-6{fill:#c3c3c3;}.cls-7,.cls-8{stroke:#85364d;}</style></defs><title>Hire</title><g id="Layer_2" data-name="Layer 2"><g id="Layer_3_copy_3" data-name="Layer 3 copy 3"><rect class="cls-1" x="37.76" y="26.55" width="75" height="97" rx="7.6" ry="7.6"/><path class="cls-2" d="M37.76,115.8V116a7.5,7.5,0,0,0,7.5,7.5h60a7.5,7.5,0,0,0,7.5-7.5v-.25Z"/><path class="cls-3" d="M112.76,42.58V116a7.5,7.5,0,0,1-7.5,7.5h-60a7.5,7.5,0,0,1-7.5-7.5V34a7.5,7.5,0,0,1,7.5-7.5H70.56"/><line class="cls-4" x1="48.54" y1="93" x2="101.98" y2="93"/><line class="cls-4" x1="48.54" y1="103.31" x2="101.98" y2="103.31"/><path class="cls-5" d="M66.74,63V61.75L60.85,65a5.82,5.82,0,0,0-2.41,2.53Z"/><path class="cls-6" d="M89.67,65l-8.58-4.72V56.35A14.68,14.68,0,0,0,83,49.11V44.36a7.72,7.72,0,0,0-14.37-3.94,7.67,7.67,0,0,1,3.94-1.11h0a7.74,7.74,0,0,1,7.74,7.74V51.8A14.68,14.68,0,0,1,78.4,59V63L87,67.68a5.83,5.83,0,0,1,3,5.11V75h2.69V70.1A5.83,5.83,0,0,0,89.67,65Z"/><path class="cls-3" d="M92.69,75V70.1a5.83,5.83,0,0,0-3-5.11l-8.58-4.72V56.35h0A14.68,14.68,0,0,0,83,49.11V44.36a7.74,7.74,0,0,0-7.74-7.74h0a7.74,7.74,0,0,0-7.74,7.74v4.74a14.68,14.68,0,0,0,1.91,7.24h0v3.92L60.85,65a5.83,5.83,0,0,0-3,5.11V75"/><rect class="cls-7" x="96.73" y="10.52" width="32.06" height="32.06" rx="16.03" ry="16.03"/><line class="cls-3" x1="79.38" y1="26.55" x2="86.44" y2="26.55"/><polyline class="cls-8" points="104.88 28.4 109.62 33.14 120.63 22.12"/><rect class="cls-9" width="150" height="150"/></g></g></svg>