<svg xmlns="http://www.w3.org/2000/svg" viewBox="0 0 36 36"><defs><style>.cls-1{fill:#fff;}.cls-2{fill:#b68a8f;}.cls-3,.cls-5,.cls-6{fill:none;}.cls-3,.cls-5{stroke:#85364d;stroke-linecap:round;stroke-linejoin:round;}.cls-4{fill:#231f20;}.cls-5{stroke-dasharray:4.53 4.53;}</style></defs><title>Badge</title><g id="Layer_2" data-name="Layer 2"><g id="Layer_3_copy_3" data-name="Layer 3 copy 3"><polygon class="cls-1" points="12.07 21.62 9.21 28.21 12.91 27.57 14.94 30.74 18.07 23.54 21.19 30.74 23.21 27.57 26.92 28.21 23.03 19.28 12.07 21.62"/><path class="cls-2" d="M24,21.16A2.83,2.83,0,0,1,23,22.37c-.72.42-1.78,0-2.6.27s-1.53,1.07-2.39,1.07-1.59-.85-2.39-1.07-1.88.15-2.6-.27a2.49,2.49,0,0,1-.85-1l-.7,1.61a2.24,2.24,0,0,0,.75.81c.83.48,2.06.06,3,.31s1.77,1.24,2.77,1.24,1.85-1,2.77-1.24,2.18.17,3-.31a2.29,2.29,0,0,0,.78-.85L24,21.16Z"/><polyline class="cls-3" points="12.22 21.39 9.21 28.21 12.91 27.57 14.94 30.74 17.08 25.88"/><polyline class="cls-3" points="25.41 24.79 26.92 28.21 23.21 27.57 21.19 30.74 18.12 23.78"/><line class="cls-3" x1="24.4" y1="22.5" x2="24.93" y2="23.7"/><path class="cls-1" d="M18.06,24.2a3.21,3.21,0,0,1-1.67-.64,3.42,3.42,0,0,0-.85-.44,2.26,2.26,0,0,0-.6-.06h-.83a2.56,2.56,0,0,1-1.3-.28,3.18,3.18,0,0,1-1.1-1.37,3.52,3.52,0,0,0-.53-.82,3.58,3.58,0,0,0-.82-.53A3.19,3.19,0,0,1,9,19a3.16,3.16,0,0,1-.27-1.73,3.63,3.63,0,0,0-.05-1,3.46,3.46,0,0,0-.44-.85,3.2,3.2,0,0,1-.65-1.67,3.2,3.2,0,0,1,.65-1.67,3.49,3.49,0,0,0,.44-.85,3.63,3.63,0,0,0,.05-1A3.16,3.16,0,0,1,9,8.49a3.18,3.18,0,0,1,1.38-1.1,3.53,3.53,0,0,0,.82-.53A3.56,3.56,0,0,0,11.72,6a3.18,3.18,0,0,1,1.1-1.37,2.56,2.56,0,0,1,1.3-.28H15a2.31,2.31,0,0,0,.6-.06,3.42,3.42,0,0,0,.85-.44,3.21,3.21,0,0,1,1.67-.64,3.2,3.2,0,0,1,1.67.65,3.44,3.44,0,0,0,.85.44,2.3,2.3,0,0,0,.59.06H22a2.56,2.56,0,0,1,1.3.28A3.19,3.19,0,0,1,24.4,6a3.52,3.52,0,0,0,.53.82,3.54,3.54,0,0,0,.82.53,3.18,3.18,0,0,1,1.38,1.11,3.16,3.16,0,0,1,.27,1.73,3.61,3.61,0,0,0,.05,1,3.49,3.49,0,0,0,.44.85,3.2,3.2,0,0,1,.65,1.67,3.2,3.2,0,0,1-.65,1.67,3.46,3.46,0,0,0-.44.85,3.62,3.62,0,0,0-.05,1A3.17,3.17,0,0,1,27.13,19a3.19,3.19,0,0,1-1.38,1.1,3.58,3.58,0,0,0-.82.53,3.55,3.55,0,0,0-.53.82,3.18,3.18,0,0,1-1.1,1.38,2.56,2.56,0,0,1-1.3.28h-.83a2.27,2.27,0,0,0-.6.06,3.44,3.44,0,0,0-.85.44A3.2,3.2,0,0,1,18.06,24.2Z"/><path class="cls-4" d="M18.06,3.75c.86,0,1.59.85,2.39,1.07a2.82,2.82,0,0,0,.72.08l.83,0a2.06,2.06,0,0,1,1,.21c.73.42.94,1.53,1.53,2.12s1.7.8,2.12,1.53,0,1.78.27,2.6S28,12.87,28,13.73s-.85,1.59-1.07,2.39.15,1.88-.27,2.6-1.53.94-2.12,1.53-.8,1.7-1.53,2.12a2.06,2.06,0,0,1-1,.21l-.83,0a2.82,2.82,0,0,0-.72.08c-.79.21-1.53,1.07-2.39,1.07s-1.59-.85-2.39-1.07a2.82,2.82,0,0,0-.72-.08l-.83,0a2.06,2.06,0,0,1-1-.21c-.73-.42-.94-1.53-1.53-2.12s-1.7-.8-2.12-1.53,0-1.78-.27-2.6-1.07-1.53-1.07-2.39.85-1.59,1.07-2.39S9,9.46,9.42,8.74,11,7.8,11.54,7.21s.8-1.7,1.53-2.12a2.06,2.06,0,0,1,1-.21l.83,0a2.82,2.82,0,0,0,.72-.08c.79-.21,1.53-1.07,2.39-1.07m0-1a3.65,3.65,0,0,0-1.93.72,3.27,3.27,0,0,1-.71.38,2,2,0,0,1-.47,0h-.83a3,3,0,0,0-1.55.35,3.62,3.62,0,0,0-1.3,1.57,3.34,3.34,0,0,1-.44.7,3.34,3.34,0,0,1-.7.44,3.62,3.62,0,0,0-1.57,1.3,3.6,3.6,0,0,0-.34,2,3.34,3.34,0,0,1,0,.85,3.27,3.27,0,0,1-.38.71,3.65,3.65,0,0,0-.72,1.93,3.65,3.65,0,0,0,.72,1.93,3.27,3.27,0,0,1,.38.71,3.34,3.34,0,0,1,0,.85,3.6,3.6,0,0,0,.34,2,3.62,3.62,0,0,0,1.57,1.3,3.34,3.34,0,0,1,.7.44,3.34,3.34,0,0,1,.44.7,3.62,3.62,0,0,0,1.3,1.57,3,3,0,0,0,1.55.35h.83a2,2,0,0,1,.47,0,3.27,3.27,0,0,1,.71.38,3.65,3.65,0,0,0,1.93.72A3.65,3.65,0,0,0,20,24a3.27,3.27,0,0,1,.71-.38,2,2,0,0,1,.47,0H22a3,3,0,0,0,1.55-.35,3.62,3.62,0,0,0,1.3-1.57,3.34,3.34,0,0,1,.44-.7,3.34,3.34,0,0,1,.7-.44,3.62,3.62,0,0,0,1.57-1.3,3.6,3.6,0,0,0,.34-2,3.34,3.34,0,0,1,0-.85,3.27,3.27,0,0,1,.38-.71A3.65,3.65,0,0,0,29,13.73a3.65,3.65,0,0,0-.72-1.93,3.27,3.27,0,0,1-.38-.71,3.34,3.34,0,0,1,0-.85,3.6,3.6,0,0,0-.34-2A3.62,3.62,0,0,0,26,6.94a3.34,3.34,0,0,1-.7-.44,3.34,3.34,0,0,1-.44-.7,3.62,3.62,0,0,0-1.3-1.57A3,3,0,0,0,22,3.88h-.83a2,2,0,0,1-.47,0A3.27,3.27,0,0,1,20,3.48a3.65,3.65,0,0,0-1.93-.72Z"/><path class="cls-2" d="M18.8,6.55A7.22,7.22,0,1,0,25.24,13,7.22,7.22,0,0,0,18.8,6.55Zm.91,10.92-1.65-1.2-1.65,1.2a.8.8,0,0,1-1.23-.89l.63-1.94-1.65-1.2A.8.8,0,0,1,14.64,12h2l.63-1.94a.8.8,0,0,1,1.52,0L19.45,12h2A.8.8,0,0,1,22,13.44l-1.65,1.2.63,1.94A.8.8,0,0,1,19.71,17.47Z"/><circle class="cls-5" cx="18.06" cy="13.73" r="7.22"/><rect class="cls-6" width="36" height="36"/></g></g></svg>