<svg xmlns="http://www.w3.org/2000/svg" viewBox="0 0 156 156"><defs><style>.cls-1{fill:#fff;}.cls-2{fill:#85364d;}.cls-3{fill:#b68a8f;}.cls-4,.cls-6,.cls-7{fill:none;}.cls-4{stroke:#b68a8f;}.cls-4,.cls-6{stroke-linecap:round;stroke-linejoin:round;}.cls-5{fill:#c3c3c3;}.cls-6{stroke:#231f20;}</style></defs><title>Admin Support</title><g id="Layer_2" data-name="Layer 2"><g id="Layer_3_copy_3" data-name="Layer 3 copy 3"><path class="cls-1" d="M83.7,84.61a.5.5,0,0,1-.48-.63L86.7,71A26.88,26.88,0,1,1,96.82,81.11l-13,3.48Z"/><path class="cls-2" d="M110,31.46A26.33,26.33,0,1,1,96.89,80.58L83.7,84.11l3.53-13.19A26.29,26.29,0,0,1,110,31.46m0-1a27.29,27.29,0,0,0-23.86,40.6L82.74,83.85A1,1,0,0,0,84,85.08l12.79-3.43A27.32,27.32,0,1,0,110,30.46Z"/><path class="cls-3" d="M110,31.46a26.26,26.26,0,0,0-20.62,10,26.3,26.3,0,0,1,37,37A26.31,26.31,0,0,0,110,31.46Z"/><line class="cls-4" x1="97.16" y1="50.96" x2="122.9" y2="50.96"/><line class="cls-4" x1="97.16" y1="57.79" x2="122.9" y2="57.79"/><line class="cls-4" x1="97.16" y1="64.61" x2="122.9" y2="64.61"/><path class="cls-1" d="M96.82,124.54V114a12.44,12.44,0,0,0-6.44-10.9L72.08,93V84.66h0a31.31,31.31,0,0,0,4.08-15.45V59.09A16.52,16.52,0,0,0,59.64,42.58h0A16.52,16.52,0,0,0,43.13,59.09V69.21A31.31,31.31,0,0,0,47.2,84.66h0V93l-18.3,10.07A12.44,12.44,0,0,0,22.46,114v10.55"/><path class="cls-5" d="M90.38,103.09,72.08,93V84.66a31.31,31.31,0,0,0,4.08-15.45V59.09A16.47,16.47,0,0,0,45.5,50.68a16.36,16.36,0,0,1,8.41-2.37h0A16.52,16.52,0,0,1,70.43,64.82V74.94a31.31,31.31,0,0,1-4.08,15.45v8.36l18.3,10.07a12.44,12.44,0,0,1,6.44,10.9v4.81h5.73V114A12.44,12.44,0,0,0,90.38,103.09Z"/><path class="cls-6" d="M96.82,124.54V114a12.44,12.44,0,0,0-6.44-10.9L72.08,93V84.66h0a31.31,31.31,0,0,0,4.08-15.45V59.09A16.52,16.52,0,0,0,59.64,42.58h0A16.52,16.52,0,0,0,43.13,59.09V69.21A31.31,31.31,0,0,0,47.2,84.66h0V93l-18.3,10.07A12.44,12.44,0,0,0,22.46,114v10.55"/><rect class="cls-7" width="156" height="156"/></g></g></svg>