<svg xmlns="http://www.w3.org/2000/svg" viewBox="0 0 100 100"><defs><style>.cls-1{fill:#b68a8f;}.cls-2,.cls-4,.cls-7{fill:#fff;}.cls-2,.cls-3{stroke:#85364d;}.cls-2,.cls-3,.cls-7{stroke-linecap:round;stroke-linejoin:round;}.cls-10,.cls-3{fill:none;}.cls-5{fill:#231f20;}.cls-6{fill:#c3c3c3;}.cls-7{stroke:#231f20;}.cls-8{fill:#939598;}.cls-9{fill:#85364d;}</style></defs><title>Get Payment</title><g id="Layer_2" data-name="Layer 2"><g id="Layer_3_copy_3" data-name="Layer 3 copy 3"><polygon class="cls-1" points="71.81 50.88 68.26 50.59 64.94 53.08 60.24 62.38 64.78 61.79 71.81 50.88"/><path class="cls-2" d="M31.28,72l5.27-10.24a7.51,7.51,0,0,1,2.93-3.07l9.15-5.28a3.09,3.09,0,0,1,4.18,1.07h0A3.09,3.09,0,0,1,52.57,58l-5.24,6.49L64.9,62,72,51.06a3.24,3.24,0,0,1,4.33-1h0a3.24,3.24,0,0,1,1.3,4.21L70.92,68.12a7.51,7.51,0,0,1-3.21,3.35L43.64,84.36"/><path class="cls-3" d="M72.25,50.7h0a6.18,6.18,0,0,0-7.59,2.84l-5,9.18"/><path class="cls-4" d="M37.1,93.63A2,2,0,0,1,35.69,93L23.15,80.51a2,2,0,0,1,0-2.83L29,71.83a2,2,0,0,1,2.83,0L44.36,84.37a2,2,0,0,1,0,2.83L38.52,93A2,2,0,0,1,37.1,93.63Z"/><path class="cls-5" d="M30.41,71.75a1.5,1.5,0,0,1,1.06.44L44,84.72a1.5,1.5,0,0,1,0,2.12l-5.84,5.84a1.5,1.5,0,0,1-2.12,0L23.51,80.16a1.5,1.5,0,0,1,0-2.12l5.84-5.84a1.5,1.5,0,0,1,1.06-.44m0-1a2.49,2.49,0,0,0-1.77.73L22.8,77.32a2.51,2.51,0,0,0,0,3.54L35.33,93.4a2.5,2.5,0,0,0,3.54,0l5.84-5.84a2.5,2.5,0,0,0,0-3.54L32.18,71.48a2.49,2.49,0,0,0-1.77-.73Z"/><path class="cls-6" d="M25,81.66l4.34-4.34a1.5,1.5,0,0,1,2.12,0l11,11,1.5-1.5a1.5,1.5,0,0,0,0-2.12L31.47,72.19a1.5,1.5,0,0,0-2.12,0L23.51,78a1.5,1.5,0,0,0,0,2.12Z"/><path class="cls-4" d="M68.39,23.2,63.48,7.54a1,1,0,0,0-1.19-.63L32.21,16.24a1,1,0,0,0-.63,1.19l3.12,10"/><path class="cls-3" d="M65.67,14.58l-2.18-7a1,1,0,0,0-1.19-.63L32.21,16.24a1,1,0,0,0-.63,1.19l3.12,10"/><path class="cls-7" d="M43.8,39.49H37.09A2.39,2.39,0,0,1,34.7,37.1V22.76a2.39,2.39,0,0,1,2.39-2.39H67.74a2.39,2.39,0,0,1,2.39,2.39V37.1a2.39,2.39,0,0,1-2.39,2.39H61"/><rect class="cls-8" x="35.21" y="31.35" width="9.56" height="4.35"/><rect class="cls-8" x="60.05" y="31.35" width="9.56" height="4.35"/><path class="cls-6" d="M46.59,18.48a3.74,3.74,0,0,1,6.67,0h3.81a1.8,1.8,0,0,1-.22-.44,1.82,1.82,0,1,1,3.26.44h4.41l-1.91-6.14a2.52,2.52,0,0,1-3.15-1.66L36.67,17.75a2.52,2.52,0,0,1,.11.73Z"/><circle class="cls-1" cx="45.1" cy="25.96" r="2.76"/><circle class="cls-9" cx="41" cy="25.96" r="2.76"/><path class="cls-9" d="M57.29,42.79V33.35a2,2,0,0,0-2-2H49.54a2,2,0,0,0-2,2v9.44H44.8l7.61,7.8L60,42.79Z"/><rect class="cls-10" width="100" height="100"/></g></g></svg>