<svg xmlns="http://www.w3.org/2000/svg" viewBox="0 0 100 100"><defs><style>.cls-1{fill:#fff;}.cls-2{fill:#b68a8f;}.cls-10,.cls-3,.cls-4,.cls-6{fill:none;}.cls-3{stroke:#231f20;}.cls-3,.cls-4,.cls-6{stroke-linecap:round;stroke-linejoin:round;}.cls-4{stroke:#b68a8f;}.cls-5{fill:#c3c3c3;}.cls-6{stroke:#85364d;}.cls-7{fill:#231f20;}.cls-8{fill:#939598;}.cls-9{fill:#85364d;}</style></defs><title>Financial Services</title><g id="Layer_2" data-name="Layer 2"><g id="Layer_3_copy_3" data-name="Layer 3 copy 3"><path class="cls-1" d="M56.14,82.33H30.27a5,5,0,0,1-5-5V22.66a5,5,0,0,1,5-5h40a5,5,0,0,1,5,5V63.2A19.13,19.13,0,0,1,56.14,82.33Z"/><path class="cls-2" d="M42,82.33l-1.3-3.12a5.42,5.42,0,0,0-5-3.34H25.28v.89a5.57,5.57,0,0,0,5.57,5.57Z"/><path class="cls-3" d="M41.33,82.33H30.28a5,5,0,0,1-5-5V22.67a5,5,0,0,1,5-5h40a5,5,0,0,1,5,5V39"/><line class="cls-4" x1="32.46" y1="28.5" x2="50.3" y2="28.5"/><line class="cls-4" x1="32.46" y1="35.38" x2="50.3" y2="35.38"/><line class="cls-4" x1="32.46" y1="42.25" x2="50.3" y2="42.25"/><path class="cls-5" d="M60,44.42l7.45-2.31A6.34,6.34,0,0,0,68.2,39c0-2.95-1-4.27-4.38-5.46-2.73-1-3.14-1.49-3.14-2.76A1.65,1.65,0,0,1,62.3,29c.94,0,1.57.61,1.79,1.71h3.47C67.49,28.39,66,26.35,64.15,26V22.33h-3.5V26c-2.48.58-3.64,2.64-3.64,5a4.93,4.93,0,0,0,3.55,5,13.4,13.4,0,0,1,2.89,1.24,2,2,0,0,1,1.08,1.93,2.26,2.26,0,0,1-2.32,2.29,2.29,2.29,0,0,1-2.31-2.37H56.21v.36A5.44,5.44,0,0,0,60,44.42Z"/><path class="cls-1" d="M45.42,67.5,41.58,55.11a1.18,1.18,0,0,1,.78-1.47L79.48,42.12a1.18,1.18,0,0,1,1.47.78l2.7,8.69,3.24,9.9-41.46,6"/><path class="cls-6" d="M83.65,51.58,81,42.89a1.18,1.18,0,0,0-1.47-.78L42.36,53.63a1.18,1.18,0,0,0-.78,1.47L45.42,67.5"/><rect class="cls-1" x="44.92" y="58.23" width="44.72" height="24.59" rx="3.44" ry="3.44"/><path class="cls-7" d="M86.2,58.73a2.94,2.94,0,0,1,2.94,2.94v17.7a2.94,2.94,0,0,1-2.94,2.94H48.37a2.94,2.94,0,0,1-2.94-2.94V61.68a2.94,2.94,0,0,1,2.94-2.94H86.2m0-1H48.37a4,4,0,0,0-3.94,3.94v17.7a4,4,0,0,0,3.94,3.94H86.2a4,4,0,0,0,3.94-3.94V61.68a4,4,0,0,0-3.94-3.94Z"/><rect class="cls-8" x="45.42" y="72.27" width="43.72" height="5.37"/><line class="cls-6" x1="84.96" y1="55.82" x2="84.44" y2="54.13"/><path class="cls-5" d="M60.1,56.39a4.62,4.62,0,0,1,8.23,0H73a2.22,2.22,0,0,1-.27-.55,2.24,2.24,0,1,1,4,.55h5.45l-2.35-7.58a3.11,3.11,0,0,1-3.89-2L47.86,55.49a3.1,3.1,0,0,1,.14.9Z"/><circle class="cls-2" cx="58.26" cy="65.63" r="3.41"/><circle class="cls-9" cx="53.2" cy="65.63" r="3.41"/><rect class="cls-10" width="100" height="100"/></g></g></svg>