<svg xmlns="http://www.w3.org/2000/svg" viewBox="0 0 100 100"><defs><style>.cls-1{fill:#fff;}.cls-2{fill:#231f20;}.cls-3{fill:#b68a8f;}.cls-10,.cls-4,.cls-6,.cls-7,.cls-8,.cls-9{fill:none;}.cls-4{stroke:#b68a8f;}.cls-4,.cls-6,.cls-7,.cls-8,.cls-9{stroke-linecap:round;stroke-linejoin:round;}.cls-5{fill:#c3c3c3;}.cls-6{stroke:#231f20;}.cls-7{stroke:#85364d;}.cls-8{stroke:#939598;}.cls-9{stroke:#c3c3c3;}</style></defs><title>Search Jobs</title><g id="Layer_2" data-name="Layer 2"><g id="Layer_3_copy_3" data-name="Layer 3 copy 3"><path class="cls-1" d="M20.64,82.63a5.42,5.42,0,0,1-3.83-9.25l9.69-9.69a.5.5,0,0,1,.35-.15h0a.5.5,0,0,1,.37.21,28.54,28.54,0,0,0,6.84,6.84.5.5,0,0,1,.06.76L24.48,81A5.38,5.38,0,0,1,20.64,82.63Z"/><path class="cls-2" d="M26.85,64a29,29,0,0,0,7,7l-9.69,9.69a4.92,4.92,0,0,1-7,0h0a4.92,4.92,0,0,1,0-7L26.85,64m0-1a1,1,0,0,0-.71.29L16.46,73a5.92,5.92,0,0,0,8.37,8.37l9.69-9.69a1,1,0,0,0-.13-1.52,28,28,0,0,1-6.72-6.72,1,1,0,0,0-.73-.42Z"/><path class="cls-3" d="M26.85,64l-3,3a20.7,20.7,0,0,0,7,7l3-3a20.7,20.7,0,0,1-7-7Z"/><line class="cls-4" x1="28.74" y1="66.66" x2="22.71" y2="72.69"/><path class="cls-1" d="M50.72,76.88a29.75,29.75,0,1,1,21-8.71A29.56,29.56,0,0,1,50.72,76.88Z"/><path class="cls-2" d="M50.72,17.88A29.25,29.25,0,1,1,30,26.44a29.16,29.16,0,0,1,20.69-8.57m0-1a30.25,30.25,0,1,0,21.39,8.86,30.06,30.06,0,0,0-21.39-8.86Z"/><path class="cls-5" d="M38.21,34.62A22.88,22.88,0,0,1,68.62,32.9,22.88,22.88,0,1,0,36.49,65,22.88,22.88,0,0,1,38.21,34.62Z"/><polygon class="cls-5" points="51.27 59.2 36.43 56.09 36.43 59.56 51.27 62.67 51.27 59.2"/><path class="cls-5" d="M71,57.72,63.95,59.2v3.47L69,61.61A25.29,25.29,0,0,1,71,57.72Z"/><path class="cls-3" d="M47.85,38.35a7.7,7.7,0,0,0-.42,2.5H51a4.17,4.17,0,0,1,.83-2.5Z"/><path class="cls-3" d="M63.4,38.35a4.17,4.17,0,0,1,.83,2.5h3.55a7.7,7.7,0,0,0-.42-2.5Z"/><path class="cls-4" d="M51,40.85a4.19,4.19,0,0,1,4.19-4.19H60a4.19,4.19,0,0,1,4.19,4.19h3.55A7.75,7.75,0,0,0,60,33.1H55.18a7.75,7.75,0,0,0-7.74,7.74Z"/><line class="cls-6" x1="36.43" y1="64.68" x2="36.43" y2="56.09"/><line class="cls-6" x1="71.01" y1="57.72" x2="63.95" y2="59.2"/><path class="cls-7" d="M51.27,59.2l-16.7-3.5V43.65a2.8,2.8,0,0,1,2.8-2.8H72.69"/><line class="cls-8" x1="50.53" y1="43.65" x2="73.23" y2="43.65"/><line class="cls-8" x1="43.48" y1="43.65" x2="47.43" y2="43.65"/><path class="cls-4" d="M51.27,58.08H63.95a0,0,0,0,1,0,0v4.05A1.88,1.88,0,0,1,62.07,64H53.15a1.88,1.88,0,0,1-1.88-1.88V58.08A0,0,0,0,1,51.27,58.08Z"/><circle class="cls-9" cx="50.72" cy="47.13" r="22.88" transform="translate(-18.47 49.67) rotate(-45)"/><rect class="cls-10" width="100" height="100"/></g></g></svg>