<svg xmlns="http://www.w3.org/2000/svg" viewBox="0 0 566.9 146.9"><path fill="#F66" d="M522.9 19.9h19.8l24.2 33.4-24.2 33.4H523l24.2-33.4z"/><path fill="#036" d="M175 66V32.6h17.5V19.9H175V0h-15v68.5c0 14.3 7.8 19.2 18.8 19.2 5.6 0 10.6-1.2 14.3-3.3l.1-11.3c-3 1.5-6.9 1.9-10.2 1.9-5.1-.1-8-3.1-8-9zM62.9 62.3L17.7 0H0v86.7h14.9V20.6l48 66.1h14.9V0H62.9v62.3zM119 18.6c-18.9 0-32.4 15.6-32.4 34.5v.3c0 20.4 14.8 34.4 34 34.4 12.2 0 20.8-4.9 27.1-12.4l-8.9-7.9c-5.3 5.1-10.5 7.9-17.9 7.9-9.8 0-17.4-6-19.1-16.8h48.7c.1-1.5.3-2.9.3-4.3-.1-19.2-10.7-35.7-31.8-35.7zm-17 27.8c1.9-9.2 8.2-15.4 16.8-15.4 9.3 0 15 6.6 16.5 15.4H102zm181 20.2L265.8 20h-15.2l-16.9 47.5L216.2 20H201l25.9 66.7h13.9l17.4-46.5 17.4 46.4h14.9L315.4 20h-15.2L283 66.6zm68.3-48c-20.3 0-35.4 15.7-35.4 34.6v.3c0 18.8 14.9 34.3 35.1 34.3 20.4 0 35.5-15.7 35.5-34.5V53c0-19-14.9-34.4-35.2-34.4zm20 34.8c0 11.4-7.8 21.1-20.1 21.1-11.8 0-20.2-9.8-20.2-21.3v-.3c0-11.5 7.8-21.1 19.9-21.1 11.9 0 20.3 9.7 20.3 21.3v.3zm112.2-33.5l-24.2 33.4V0h-15.1v86.7h15.1V53.3l24.3 33.4h19.7L479 53.3l24.2-33.4h-19.7zm-73 15v-15h-15.2v66.8h15.2V61c0-17.6 9.3-26.2 22.6-26.2h.9V18.7c-11.7-.5-19.3 6.3-23.5 16.2z"/><path fill="#F66" d="M565.8 53.3z"/><g><g fill="#036"><path d="M0 119.1h2.5v22.5H0v-22.5zM8.7 125h2.5v2.9c1.1-1.8 2.8-3.2 5.7-3.2 4 0 6.4 2.7 6.4 6.7v10.3h-2.5V132c0-3.1-1.7-5-4.6-5-2.9 0-5 2.1-5 5.2v9.5H8.7V125zM29.4 137.2v-10h-2.3V125h2.3v-5h2.5v5h5.3v2.2h-5.3v9.7c0 2 1.1 2.8 2.8 2.8.8 0 1.5-.2 2.4-.6v2.1c-.9.5-1.8.7-3 .7-2.7 0-4.7-1.3-4.7-4.7zM48.3 139.9c2.3 0 3.9-.9 5.2-2.3L55 139c-1.7 1.9-3.7 3.1-6.8 3.1-4.6 0-8.3-3.5-8.3-8.7 0-4.8 3.4-8.7 8-8.7 4.9 0 7.7 3.9 7.7 8.8v.9H42.5c.4 3.5 2.9 5.5 5.8 5.5zm4.9-7.5c-.3-3-2-5.6-5.3-5.6-2.9 0-5 2.4-5.4 5.6h10.7zM60 125h2.5v4.3c1.2-2.8 3.6-4.8 6.8-4.6v2.7h-.2c-3.6 0-6.6 2.6-6.6 7.6v6.6H60V125zM73.1 125h2.5v2.9c1.1-1.8 2.8-3.2 5.7-3.2 4 0 6.4 2.7 6.4 6.7v10.3h-2.5V132c0-3.1-1.7-5-4.6-5-2.9 0-5 2.1-5 5.2v9.5h-2.5V125zM91.6 136.8c0-3.6 2.9-5.5 7.1-5.5 2.1 0 3.6.3 5.1.7v-.5c0-3-1.8-4.5-4.9-4.5-2 0-3.5.5-5 1.2l-.7-2c1.8-.8 3.6-1.4 6-1.4 2.3 0 4.2.6 5.4 1.8 1.2 1.2 1.7 2.8 1.7 4.9v10.2h-2.4v-2.5c-1.2 1.5-3.1 2.8-6 2.8-3.2 0-6.3-1.8-6.3-5.2zm12.2-1.3V134c-1.2-.4-2.8-.7-4.9-.7-3.1 0-4.9 1.3-4.9 3.3v.1c0 2.1 1.9 3.3 4.2 3.3 3.2 0 5.6-1.8 5.6-4.5zM112.2 137.2v-10h-2.3V125h2.3v-5h2.5v5h5.3v2.2h-5.3v9.7c0 2 1.1 2.8 2.8 2.8.8 0 1.5-.2 2.4-.6v2.1c-.9.5-1.8.7-3 .7-2.7 0-4.7-1.3-4.7-4.7zM124.4 119.1h2.8v2.7h-2.8v-2.7zm.1 5.9h2.5v16.6h-2.5V125zM131.7 133.4c0-4.8 3.7-8.7 8.7-8.7 5 0 8.6 3.9 8.6 8.6v.1c0 4.7-3.7 8.7-8.7 8.7-4.9-.1-8.6-4-8.6-8.7zm14.8 0c0-3.6-2.7-6.6-6.2-6.6-3.6 0-6.1 2.9-6.1 6.4v.1c0 3.6 2.6 6.5 6.1 6.5 3.7 0 6.2-2.9 6.2-6.4zM153.5 125h2.5v2.9c1.1-1.8 2.8-3.2 5.7-3.2 4 0 6.4 2.7 6.4 6.7v10.3h-2.5V132c0-3.1-1.7-5-4.6-5-2.9 0-5 2.1-5 5.2v9.5h-2.5V125zM172.1 136.8c0-3.6 2.9-5.5 7.1-5.5 2.1 0 3.6.3 5.1.7v-.5c0-3-1.8-4.5-4.9-4.5-2 0-3.5.5-5 1.2l-.7-2c1.8-.8 3.6-1.4 6-1.4 2.3 0 4.2.6 5.4 1.8 1.2 1.2 1.7 2.8 1.7 4.9v10.2h-2.4v-2.5c-1.2 1.5-3.1 2.8-6 2.8-3.2 0-6.3-1.8-6.3-5.2zm12.2-1.3V134c-1.2-.4-2.8-.7-4.9-.7-3.1 0-4.9 1.3-4.9 3.3v.1c0 2.1 1.9 3.3 4.2 3.3 3.1 0 5.6-1.8 5.6-4.5zM192.2 119.1h2.5v22.5h-2.5v-22.5zM210.5 119.1h8.4c5.1 0 8.4 2.7 8.4 7.1v.1c0 4.9-4.1 7.4-8.8 7.4H213v7.9h-2.5v-22.5zm8.1 12.3c3.7 0 6.2-2 6.2-5v-.1c0-3.2-2.4-4.9-6-4.9H213v9.9h5.6zM229.9 136.8c0-3.6 2.9-5.5 7.1-5.5 2.1 0 3.6.3 5.1.7v-.5c0-3-1.8-4.5-4.9-4.5-2 0-3.5.5-5 1.2l-.7-2c1.8-.8 3.6-1.4 6-1.4 2.3 0 4.2.6 5.4 1.8 1.2 1.2 1.7 2.8 1.7 4.9v10.2h-2.4v-2.5c-1.2 1.5-3.1 2.8-6 2.8-3.2 0-6.3-1.8-6.3-5.2zm12.2-1.3V134c-1.2-.4-2.8-.7-4.9-.7-3.1 0-4.9 1.3-4.9 3.3v.1c0 2.1 1.9 3.3 4.2 3.3 3.2 0 5.6-1.8 5.6-4.5zM248.2 146.1l.8-2c.8.4 1.5.6 2.6.6 1.5 0 2.4-.8 3.4-3.1l-7.6-16.6h2.7l6 13.9 5.3-13.9h2.6l-7 17.2c-1.4 3.4-3 4.7-5.5 4.7-1.2 0-2.2-.3-3.3-.8zM268.2 125h2.5v2.8c1.1-1.6 2.6-3.2 5.4-3.2 2.7 0 4.4 1.4 5.3 3.3 1.2-1.8 3-3.3 5.9-3.3 3.8 0 6.2 2.6 6.2 6.7v10.3H291v-9.7c0-3.2-1.6-5-4.3-5-2.5 0-4.6 1.9-4.6 5.1v9.6h-2.4v-9.8c0-3.1-1.6-5-4.3-5-2.6 0-4.6 2.2-4.6 5.2v9.5h-2.5V125zM306 139.9c2.3 0 3.9-.9 5.2-2.3l1.5 1.4c-1.7 1.9-3.7 3.1-6.8 3.1-4.6 0-8.3-3.5-8.3-8.7 0-4.8 3.4-8.7 8-8.7 4.9 0 7.8 3.9 7.8 8.8v.9h-13.2c.4 3.5 2.9 5.5 5.8 5.5zm4.9-7.5c-.3-3-2-5.6-5.3-5.6-2.9 0-5 2.4-5.4 5.6h10.7zM317.8 125h2.5v2.9c1.1-1.8 2.8-3.2 5.7-3.2 4 0 6.4 2.7 6.4 6.7v10.3h-2.5V132c0-3.1-1.7-5-4.6-5-2.9 0-5 2.1-5 5.2v9.5h-2.5V125zM338.4 137.2v-10h-2.3V125h2.3v-5h2.5v5h5.3v2.2h-5.3v9.7c0 2 1.1 2.8 2.8 2.8.8 0 1.5-.2 2.4-.6v2.1c-.9.5-1.8.7-3 .7-2.7 0-4.7-1.3-4.7-4.7zM359.1 138.4l1.6-1.9c2.3 2.1 4.6 3.2 7.7 3.2 3 0 5-1.6 5-3.8v-.1c0-2.1-1.1-3.3-5.8-4.3-5.2-1.1-7.6-2.8-7.6-6.5 0-3.5 3.1-6.1 7.4-6.1 3.3 0 5.6.9 7.9 2.8l-1.5 2c-2.1-1.7-4.2-2.4-6.5-2.4-2.9 0-4.8 1.6-4.8 3.6v.1c0 2.1 1.2 3.3 6.1 4.4 5 1.1 7.3 2.9 7.3 6.4v.1c0 3.9-3.2 6.4-7.7 6.4-3.5-.3-6.4-1.5-9.1-3.9zM379.7 133.4c0-4.8 3.7-8.7 8.7-8.7 5 0 8.6 3.9 8.6 8.6v.1c0 4.7-3.7 8.7-8.7 8.7-4.9-.1-8.6-4-8.6-8.7zm14.8 0c0-3.6-2.7-6.6-6.2-6.6-3.6 0-6.1 2.9-6.1 6.4v.1c0 3.6 2.6 6.5 6.1 6.5 3.7 0 6.2-2.9 6.2-6.4zM401.7 119.1h2.5v22.5h-2.5v-22.5zM409.7 135.4V125h2.5v9.7c0 3.1 1.7 5 4.6 5 2.8 0 5-2.1 5-5.2V125h2.4v16.6h-2.4v-2.9c-1.1 1.8-2.8 3.2-5.7 3.2-4 .1-6.4-2.6-6.4-6.5zM430.6 137.2v-10h-2.3V125h2.3v-5h2.5v5h5.3v2.2h-5.3v9.7c0 2 1.1 2.8 2.8 2.8.8 0 1.5-.2 2.4-.6v2.1c-.9.5-1.8.7-3 .7-2.6 0-4.7-1.3-4.7-4.7zM442.8 119.1h2.8v2.7h-2.8v-2.7zm.2 5.9h2.5v16.6H443V125zM450.2 133.4c0-4.8 3.7-8.7 8.7-8.7 5 0 8.6 3.9 8.6 8.6v.1c0 4.7-3.7 8.7-8.7 8.7-5-.1-8.6-4-8.6-8.7zm14.8 0c0-3.6-2.7-6.6-6.2-6.6-3.6 0-6.1 2.9-6.1 6.4v.1c0 3.6 2.6 6.5 6.1 6.5 3.7 0 6.2-2.9 6.2-6.4zM472 125h2.5v2.9c1.1-1.8 2.8-3.2 5.7-3.2 4 0 6.4 2.7 6.4 6.7v10.3H484V132c0-3.1-1.7-5-4.6-5-2.9 0-5 2.1-5 5.2v9.5H472V125zM490.4 139.5l1.3-1.8c1.8 1.3 3.8 2.1 5.8 2.1s3.4-1 3.4-2.6v-.1c0-1.7-2-2.3-4.1-2.9-2.6-.7-5.5-1.6-5.5-4.7v-.1c0-2.9 2.4-4.8 5.7-4.8 2 0 4.3.7 6 1.8l-1.1 1.9c-1.5-1-3.3-1.6-4.9-1.6-2 0-3.2 1-3.2 2.4v.1c0 1.6 2.1 2.2 4.3 2.9 2.6.8 5.3 1.8 5.3 4.8v.1c0 3.2-2.6 5-5.9 5-2.6 0-5.2-1-7.1-2.5z"/></g></g></svg>