<svg xmlns="http://www.w3.org/2000/svg" viewBox="0 0 100 100"><defs><style>.cls-1{fill:#fff;}.cls-2{fill:#231f20;}.cls-3{fill:#b68a8f;}.cls-4,.cls-7,.cls-8,.cls-9{fill:none;}.cls-4{stroke:#b68a8f;}.cls-4,.cls-7,.cls-8{stroke-linecap:round;stroke-linejoin:round;}.cls-5{fill:#939598;}.cls-6{fill:#c3c3c3;}.cls-7{stroke:#231f20;}.cls-8{stroke:#85364d;}</style></defs><title>Post Jobs</title><g id="Layer_2" data-name="Layer 2"><g id="Layer_3_copy_3" data-name="Layer 3 copy 3"><path class="cls-1" d="M45.29,88.12a5.53,5.53,0,0,1-5.15-3.57L20.91,33.39a5.51,5.51,0,0,1,3.21-7.08L61.56,12.23a5.49,5.49,0,0,1,7.08,3.21L87.88,66.61a5.51,5.51,0,0,1-3.21,7.08L47.22,87.77A5.48,5.48,0,0,1,45.29,88.12Z"/><path class="cls-2" d="M63.5,12.38a5,5,0,0,1,4.68,3.24L87.41,66.79a5,5,0,0,1-2.92,6.44L47,87.3a5,5,0,0,1-6.44-2.92L21.37,33.21a5,5,0,0,1,2.92-6.44L61.74,12.7a5,5,0,0,1,1.76-.32m0-1a6,6,0,0,0-2.11.39L23.94,25.84a6,6,0,0,0-3.51,7.73L39.67,84.73a6,6,0,0,0,7.73,3.51L84.84,74.16a6,6,0,0,0,3.51-7.73L69.11,15.27a6,6,0,0,0-5.62-3.89Z"/><path class="cls-3" d="M40.55,84.23l.06.16A5,5,0,0,0,47,87.3L84.49,73.23a5,5,0,0,0,2.92-6.44l-.06-.16Z"/><path class="cls-3" d="M67,79.82V27.36a5,5,0,0,0-5-5H36L24.29,26.77a5,5,0,0,0-2.92,6.44L40.61,84.38A5,5,0,0,0,43,87h4.83Z"/><line class="cls-4" x1="30.15" y1="36.14" x2="63.5" y2="23.61"/><line class="cls-4" x1="32.57" y1="42.58" x2="65.92" y2="30.04"/><line class="cls-4" x1="34.99" y1="49.01" x2="68.34" y2="36.48"/><line class="cls-4" x1="37.41" y1="55.45" x2="70.76" y2="42.91"/><path class="cls-5" d="M12.27,77.17v.17a5,5,0,0,0,5,5h40a5,5,0,0,0,5-5v-.17Z"/><rect class="cls-1" x="11.77" y="17.17" width="51" height="65.67" rx="5.5" ry="5.5"/><path class="cls-2" d="M57.27,17.67a5,5,0,0,1,5,5V77.33a5,5,0,0,1-5,5h-40a5,5,0,0,1-5-5V22.67a5,5,0,0,1,5-5h40m0-1h-40a6,6,0,0,0-6,6V77.33a6,6,0,0,0,6,6h40a6,6,0,0,0,6-6V22.67a6,6,0,0,0-6-6Z"/><path class="cls-3" d="M32.15,40.16a3.24,3.24,0,0,1,3.24-3.24h3.76a3.24,3.24,0,0,1,3.24,3.24h2.75a6,6,0,0,0-6-6H35.39a6,6,0,0,0-6,6Z"/><polygon class="cls-6" points="32.37 54.35 20.9 51.95 20.9 54.63 32.37 57.03 32.37 54.35"/><polygon class="cls-6" points="42.17 54.35 42.17 57.03 53.64 54.63 53.64 51.95 42.17 54.35"/><path class="cls-7" d="M53.64,51.94V62a2.16,2.16,0,0,1-2.16,2.16H23.06A2.16,2.16,0,0,1,20.9,62V51.94"/><path class="cls-8" d="M32.36,54.35l-12.91-2.7V42.32a2.16,2.16,0,0,1,2.16-2.16h31.3a2.16,2.16,0,0,1,2.16,2.16v9.32L42.17,54.35"/><path class="cls-4" d="M32.37,53.48h9.8a0,0,0,0,1,0,0v3.13a1.45,1.45,0,0,1-1.45,1.45h-6.9a1.45,1.45,0,0,1-1.45-1.45V53.48A0,0,0,0,1,32.37,53.48Z"/><rect class="cls-9" width="100" height="100"/></g></g></svg>