<svg xmlns="http://www.w3.org/2000/svg" viewBox="0 0 100 100"><defs><style>.cls-1{fill:#fff;}.cls-2{fill:#b68a8f;}.cls-3,.cls-4,.cls-6{fill:none;}.cls-3{stroke:#231f20;}.cls-3,.cls-4{stroke-linecap:round;stroke-linejoin:round;}.cls-4{stroke:#b68a8f;}.cls-5{fill:#85364d;}</style></defs><title>Business Support</title><g id="Layer_2" data-name="Layer 2"><g id="Layer_3_copy_3" data-name="Layer 3 copy 3"><path class="cls-1" d="M74.84,54.08V81.67a5,5,0,0,1-5,5h-40a5,5,0,0,1-5-5V27a5,5,0,0,1,5-5h45"/><path class="cls-2" d="M24.84,81.5v.17a5,5,0,0,0,5,5h40a5,5,0,0,0,5-5V81.5Z"/><path class="cls-3" d="M74.84,54.08V81.67a5,5,0,0,1-5,5h-40a5,5,0,0,1-5-5V27a5,5,0,0,1,5-5H63.21"/><line class="cls-4" x1="32.03" y1="32.83" x2="49.84" y2="32.83"/><line class="cls-4" x1="32.03" y1="39.71" x2="49.84" y2="39.71"/><line class="cls-4" x1="32.03" y1="46.58" x2="49.84" y2="46.58"/><line class="cls-4" x1="32.03" y1="53.46" x2="49.84" y2="53.46"/><path class="cls-1" d="M58,51.58a.5.5,0,0,1-.48-.63l2.21-8.25a17.41,17.41,0,1,1,6.66,6.66l-8.26,2.21Z"/><path class="cls-5" d="M74.84,17.33a16.88,16.88,0,1,1-8.42,31.48L58,51.08l2.27-8.45a16.85,16.85,0,0,1,14.61-25.3m0-1A17.85,17.85,0,0,0,59.16,42.76L57,50.82A1,1,0,0,0,58.22,52l8.06-2.16a17.87,17.87,0,1,0,8.55-33.56Z"/><path class="cls-2" d="M74.84,17.33a16.83,16.83,0,0,0-13.22,6.41A16.86,16.86,0,0,1,85.31,47.43a16.86,16.86,0,0,0-10.47-30.1Z"/><line class="cls-4" x1="66.59" y1="29.83" x2="83.09" y2="29.83"/><line class="cls-4" x1="66.59" y1="34.21" x2="83.09" y2="34.21"/><line class="cls-4" x1="66.59" y1="38.58" x2="83.09" y2="38.58"/><rect class="cls-6" width="100" height="100"/></g></g></svg>