<svg xmlns="http://www.w3.org/2000/svg" viewBox="0 0 120 120"><defs><style>.cls-1,.cls-3{fill:#fff;}.cls-1{stroke:#939598;}.cls-1,.cls-3,.cls-5{stroke-linecap:round;stroke-linejoin:round;}.cls-2{fill:#939598;}.cls-3{stroke:#85364d;}.cls-4{fill:#231f20;}.cls-5,.cls-6{fill:none;}.cls-5{stroke:#b68a8f;}</style></defs><title>Sign In</title><g id="Layer_2" data-name="Layer 2"><g id="Layer_3_copy_3" data-name="Layer 3 copy 3"><path class="cls-1" d="M46.47,54.15V43.87a13.17,13.17,0,0,1,26.34,0V54.15h9.91V43.87A23.08,23.08,0,0,0,59.64,20.79h0A23.08,23.08,0,0,0,36.56,43.87V54.15Z"/><rect class="cls-2" x="36.56" y="48" width="9.91" height="6.15"/><rect class="cls-2" x="72.81" y="48" width="9.91" height="6.15"/><rect class="cls-3" x="27.74" y="54.15" width="63.8" height="45.05" rx="4.95" ry="4.95"/><path class="cls-4" d="M66.78,72.9a7.14,7.14,0,1,0-11.57,5.6l-1.79,12H65.86l-1.79-12A7.12,7.12,0,0,0,66.78,72.9Z"/><line class="cls-5" x1="50.33" y1="59.11" x2="82.72" y2="59.11"/><line class="cls-5" x1="36.56" y1="59.11" x2="40.43" y2="59.11"/><rect class="cls-6" width="120" height="120"/></g></g></svg>