<svg xmlns="http://www.w3.org/2000/svg" viewBox="0 0 100 100"><defs><style>.cls-1,.cls-6{fill:#fff;}.cls-2{fill:#b68a8f;}.cls-3,.cls-4,.cls-5,.cls-7{fill:none;}.cls-3,.cls-6{stroke:#231f20;}.cls-3,.cls-4,.cls-5,.cls-6{stroke-linecap:round;stroke-linejoin:round;}.cls-4{stroke:#b68a8f;}.cls-5{stroke:#85364d;}</style></defs><title>Place Bid on Jobs</title><g id="Layer_2" data-name="Layer 2"><g id="Layer_3_copy_3" data-name="Layer 3 copy 3"><path class="cls-1" d="M75,77.33a5,5,0,0,1-5,5H30a5,5,0,0,1-5-5V22.67a5,5,0,0,1,5-5H70a5,5,0,0,1,5,5V38.42"/><path class="cls-2" d="M25,77.17v.17a5,5,0,0,0,5,5H70a5,5,0,0,0,5-5v-.17Z"/><path class="cls-3" d="M75,77.33a5,5,0,0,1-5,5H30a5,5,0,0,1-5-5V22.67a5,5,0,0,1,5-5H70a5,5,0,0,1,5,5V38.42"/><line class="cls-4" x1="32.19" y1="28.5" x2="67.81" y2="28.5"/><line class="cls-4" x1="32.19" y1="35.38" x2="67.81" y2="35.38"/><line class="cls-4" x1="32.19" y1="42.25" x2="50.79" y2="42.25"/><line class="cls-4" x1="32.19" y1="49.13" x2="50.79" y2="49.13"/><path class="cls-2" d="M43.36,66.31l20-6.42L62.77,58,42.53,64.44a2.87,2.87,0,0,0-1.86,3.62,2.84,2.84,0,0,0,.7,1.14A2.87,2.87,0,0,1,43.36,66.31Z"/><path class="cls-5" d="M42.3,64.24l20.23-6.49,1.76,5.48L44.06,69.71a2.87,2.87,0,1,1-1.76-5.48Z"/><rect class="cls-6" x="63.08" y="50.52" width="14" height="15.65" transform="translate(154.63 92.51) rotate(162.22)"/><rect class="cls-6" x="56.98" y="45.29" width="19.67" height="5.75" rx="2.87" ry="2.87" transform="translate(145.14 73.62) rotate(162.22)"/><rect class="cls-6" x="63.52" y="65.66" width="19.67" height="5.75" rx="2.87" ry="2.87" transform="translate(164.12 111.4) rotate(162.22)"/><rect class="cls-7" width="100" height="100"/></g></g></svg>