<svg xmlns="http://www.w3.org/2000/svg" viewBox="0 0 100 100"><defs><style>.cls-1,.cls-5{fill:#fff;}.cls-2{fill:#b68a8f;}.cls-3,.cls-4,.cls-6,.cls-8{fill:none;}.cls-3{stroke:#231f20;}.cls-3,.cls-4,.cls-5,.cls-6{stroke-linecap:round;stroke-linejoin:round;}.cls-4{stroke:#b68a8f;}.cls-5,.cls-6{stroke:#85364d;}.cls-7{fill:#939598;}</style></defs><title>Accounting</title><g id="Layer_2" data-name="Layer 2"><g id="Layer_3_copy_3" data-name="Layer 3 copy 3"><path class="cls-1" d="M52.68,82.33H26.8a5,5,0,0,1-5-5V22.66a5,5,0,0,1,5-5h40a5,5,0,0,1,5,5V63.2A19.13,19.13,0,0,1,52.68,82.33Z"/><path class="cls-2" d="M37.46,82.33l-1.3-3.12a5.42,5.42,0,0,0-5-3.34H21.81v.89a5.57,5.57,0,0,0,5.57,5.57Z"/><path class="cls-3" d="M36.78,82.33h-10a5,5,0,0,1-5-5V22.67a5,5,0,0,1,5-5h40a5,5,0,0,1,5,5V39"/><line class="cls-4" x1="29" y1="28.5" x2="64.62" y2="28.5"/><line class="cls-4" x1="29" y1="35.38" x2="64.62" y2="35.38"/><line class="cls-4" x1="29" y1="42.25" x2="46.81" y2="42.25"/><line class="cls-4" x1="29" y1="49.13" x2="46.81" y2="49.13"/><path class="cls-5" d="M94.9,49.22V78.67c0,2.75-6,5-13.51,5s-13.51-2.23-13.51-5V49.22Z"/><path class="cls-2" d="M71.23,52.74a6.7,6.7,0,0,1-2-.83,4.19,4.19,0,0,1-1.36-1.52V80a13.81,13.81,0,0,1,2.66,1.87c.22.07.45.13.68.18a3.19,3.19,0,0,1,1,.41V53.41l-.16-.1A7.68,7.68,0,0,0,71.23,52.74Z"/><path class="cls-6" d="M94.9,70.74v3.63c0,2.75-6,5-13.51,5s-13.51-2.23-13.51-5V70.74"/><path class="cls-6" d="M94.9,66.44v3.63c0,2.75-6,5-13.51,5s-13.51-2.23-13.51-5V66.44"/><path class="cls-6" d="M94.9,62.13v3.63c0,2.75-6,5-13.51,5s-13.51-2.23-13.51-5V62.13"/><path class="cls-6" d="M94.9,57.83v3.63c0,2.75-6,5-13.51,5s-13.51-2.23-13.51-5V57.83"/><path class="cls-6" d="M94.9,53.53v3.63c0,2.75-6,5-13.51,5s-13.51-2.23-13.51-5V53.53"/><path class="cls-6" d="M94.9,49.22v3.63c0,2.75-6,5-13.51,5s-13.51-2.23-13.51-5V49.22"/><ellipse class="cls-5" cx="81.4" cy="49.22" rx="13.51" ry="4.97"/><path class="cls-7" d="M74.17,50.57c0-1.86,4.09-3.36,9.13-3.36a18.4,18.4,0,0,1,6.93,1.18c-1-1.45-4.57-2.52-8.83-2.52-5,0-9.13,1.5-9.13,3.36,0,.83.83,1.6,2.2,2.18A1.47,1.47,0,0,1,74.17,50.57Z"/><path class="cls-6" d="M94.9,49.22V78.67c0,2.75-6,5-13.51,5s-13.51-2.23-13.51-5V49.22"/><path class="cls-5" d="M67.89,62.8V79.34c0,2.75-6,5-13.51,5s-13.51-2.23-13.51-5V62.8Z"/><path class="cls-2" d="M41,80.28a13.27,13.27,0,0,0,4.23,2.66V66.5l-.16-.1c-.27-.21-.58.1-.89-.08a6.7,6.7,0,0,1-2-.83A4.19,4.19,0,0,1,40.88,64V80.19A.76.76,0,0,1,41,80.28Z"/><path class="cls-6" d="M67.89,75.71v3.63c0,2.75-6,5-13.51,5s-13.51-2.23-13.51-5V75.71"/><path class="cls-6" d="M67.89,71.41V75c0,2.75-6,5-13.51,5s-13.51-2.23-13.51-5V71.41"/><path class="cls-6" d="M67.89,67.11v3.63c0,2.75-6,5-13.51,5s-13.51-2.23-13.51-5V67.11"/><path class="cls-6" d="M67.89,62.8v3.63c0,2.75-6,5-13.51,5s-13.51-2.23-13.51-5V62.8"/><ellipse class="cls-5" cx="54.38" cy="62.8" rx="13.51" ry="4.97"/><path class="cls-7" d="M47.16,64.15c0-1.86,4.09-3.36,9.13-3.36A18.4,18.4,0,0,1,63.21,62c-1-1.45-4.57-2.52-8.83-2.52-5,0-9.13,1.5-9.13,3.36,0,.83.83,1.6,2.2,2.18A1.47,1.47,0,0,1,47.16,64.15Z"/><path class="cls-6" d="M67.89,62.8V79.34c0,2.75-6,5-13.51,5s-13.51-2.23-13.51-5V62.8"/><rect class="cls-8" width="100" height="100"/></g></g></svg>