<svg xmlns="http://www.w3.org/2000/svg" viewBox="0 0 150 150"><defs><style>.cls-1{fill:#fff;}.cls-2,.cls-8{fill:none;}.cls-2{stroke:#85364d;stroke-linecap:round;stroke-linejoin:round;}.cls-3{fill:#231f20;}.cls-4{fill:#939598;}.cls-5{fill:#c3c3c3;}.cls-6{fill:#b68a8f;}.cls-7{fill:#85364d;}</style></defs><title>Pay</title><g id="Layer_2" data-name="Layer 2"><g id="Layer_3_copy_3" data-name="Layer 3 copy 3"><path class="cls-1" d="M34.09,86.15,26,60.13A2.47,2.47,0,0,1,27.65,57l77.94-24.19a2.47,2.47,0,0,1,3.09,1.63l5.66,18.24,6.81,20.79L34.09,86.15"/><path class="cls-2" d="M114.35,52.71l-5.66-18.24a2.47,2.47,0,0,0-3.09-1.63L27.65,57A2.47,2.47,0,0,0,26,60.13l8.07,26"/><rect class="cls-1" x="33.59" y="67.23" width="92.8" height="50.53" rx="6.68" ry="6.68"/><path class="cls-3" d="M119.71,67.73a6.18,6.18,0,0,1,6.18,6.18v37.17a6.18,6.18,0,0,1-6.18,6.18H40.28a6.18,6.18,0,0,1-6.18-6.18V73.91a6.18,6.18,0,0,1,6.18-6.18h79.44m0-1H40.28a7.19,7.19,0,0,0-7.18,7.18v37.17a7.19,7.19,0,0,0,7.18,7.18h79.44a7.19,7.19,0,0,0,7.18-7.18V73.91a7.19,7.19,0,0,0-7.18-7.18Z"/><rect class="cls-4" x="34.09" y="96.17" width="91.8" height="11.28"/><line class="cls-2" x1="117.11" y1="61.62" x2="116.01" y2="58.07"/><path class="cls-5" d="M64.9,62.82a9.7,9.7,0,0,1,17.28,0h9.88a4.66,4.66,0,0,1-.56-1.15,4.71,4.71,0,1,1,8.44,1.15h11.44L106.44,46.9a6.53,6.53,0,0,1-8.17-4.3L39.21,60.93a6.52,6.52,0,0,1,.29,1.88Z"/><circle class="cls-6" cx="61.04" cy="82.21" r="7.16"/><circle class="cls-7" cx="50.42" cy="82.21" r="7.16"/><rect class="cls-8" width="150" height="150"/></g></g></svg>